<svg width="786.483" height="72.367" viewBox="0 0 786.483 72.367" xmlns="http://www.w3.org/2000/svg"><g id="svgGroup" stroke-linecap="round" fill-rule="evenodd" font-size="9pt" stroke="#000" stroke-width="0.25mm" fill="#000" style="stroke:#000;stroke-width:0.25mm;fill:#000"><path d="M 10.721 35.129 L 10.721 41.424 C 10.721 44.705 10.442 48.153 7.591 48.987 A 4.629 4.629 0 0 1 6.789 49.144 L 7.195 50.732 A 26.162 26.162 0 0 0 9.392 50.485 C 15.015 49.608 20.638 46.769 21.443 40.513 A 12.328 12.328 0 0 0 21.542 38.938 L 21.542 20.313 A 13.961 13.961 0 0 1 21.903 17.056 C 22.605 14.12 24.269 12.094 26.353 10.527 C 26.353 20.655 26.353 30.782 26.353 40.91 A 22.485 22.485 0 0 1 25.916 45.832 C 25.065 49.562 22.748 51.879 17.08 52.614 A 34.885 34.885 0 0 1 12.621 52.868 A 10.152 10.152 0 0 0 6.622 54.717 C 4.669 56.129 3.321 58.281 2.915 60.934 A 11.343 11.343 0 0 0 2.787 62.649 A 9.746 9.746 0 0 0 8.927 71.884 A 8.399 8.399 0 0 0 11.754 72.367 C 12.098 72.367 12.441 72.346 12.783 72.302 L 12.783 70.307 C 12.701 70.311 12.619 70.313 12.537 70.313 A 4.906 4.906 0 0 1 9.657 69.431 A 2.998 2.998 0 0 1 8.369 66.966 A 3.017 3.017 0 0 1 8.756 65.418 C 9.788 63.644 12.693 63.362 15.072 63.184 A 20.577 20.577 0 0 0 22.427 61.39 C 26.222 59.563 28.755 56.28 28.755 51.015 C 28.755 50.994 28.755 50.973 28.755 50.952 L 28.742 42.952 L 28.742 39.757 A 6.977 6.977 0 0 1 32.796 38.441 C 32.808 38.441 32.821 38.44 32.834 38.44 A 6.996 6.996 0 0 1 37.549 40.254 C 37.549 44.545 37.549 48.836 37.549 53.128 L 32.356 56.723 L 33.155 57.921 L 35.951 55.924 L 45.538 63.913 L 59.519 53.527 L 58.321 52.329 L 55.673 54.097 C 55.673 49.313 55.673 44.529 55.673 39.746 A 6.977 6.977 0 0 1 59.712 38.441 C 59.725 38.441 59.738 38.44 59.75 38.44 A 7 7 0 0 1 64.312 40.119 L 64.313 53.407 L 59.523 56.723 L 60.321 57.921 L 63.118 55.924 L 72.705 63.913 L 85.436 53.527 L 84.237 52.329 L 79.517 55.481 L 75.897 52.329 L 75.897 13.56 L 80.233 10.044 L 78.763 8.231 L 75.293 11.046 L 64.726 1.618 L 55.673 7.052 C 55.673 5.5 55.673 3.948 55.673 2.397 L 53.285 2.397 C 53.285 4.426 53.285 6.456 53.285 8.485 L 48.754 11.204 A 7690.805 7690.805 0 0 0 41.592 5.275 C 40.111 4.049 38.63 2.824 37.149 1.598 L 20.458 12.167 A 44.773 44.773 0 0 0 18.765 13.291 C 16.51 14.867 14.842 16.391 13.628 17.996 A 14.12 14.12 0 0 0 10.849 25.486 A 17.743 17.743 0 0 0 6.657 26.472 C 5.123 27.053 3.862 27.839 2.881 28.793 A 8.458 8.458 0 0 0 0.329 35.048 A 9.834 9.834 0 0 0 0.329 35.122 A 10.139 10.139 0 0 0 1.603 39.949 L 3.196 39.949 A 5.588 5.588 0 0 1 3.121 39.362 C 2.973 37.357 4.061 36.024 5.8 35.45 A 6.943 6.943 0 0 1 7.97 35.129 A 65685.591 65685.591 0 0 0 9.345 35.129 A 65685.591 65685.591 0 0 1 10.721 35.129 Z M 245.304 35.129 L 245.304 41.424 C 245.304 44.705 245.026 48.153 242.175 48.987 A 4.629 4.629 0 0 1 241.372 49.144 L 241.778 50.732 A 26.162 26.162 0 0 0 243.975 50.485 C 249.598 49.608 255.221 46.769 256.027 40.513 A 12.328 12.328 0 0 0 256.125 38.938 L 256.125 20.313 A 13.961 13.961 0 0 1 256.486 17.056 C 257.188 14.12 258.853 12.094 260.936 10.527 C 260.936 20.655 260.936 30.782 260.936 40.91 A 22.485 22.485 0 0 1 260.499 45.832 C 259.649 49.562 257.331 51.879 251.663 52.614 A 34.885 34.885 0 0 1 247.204 52.868 A 10.152 10.152 0 0 0 241.205 54.717 C 239.252 56.129 237.904 58.281 237.498 60.934 A 11.343 11.343 0 0 0 237.371 62.649 A 9.746 9.746 0 0 0 243.51 71.884 A 8.399 8.399 0 0 0 246.338 72.367 C 246.681 72.367 247.025 72.346 247.366 72.302 L 247.366 70.307 C 247.284 70.311 247.202 70.313 247.12 70.313 A 4.906 4.906 0 0 1 244.241 69.431 A 2.998 2.998 0 0 1 242.953 66.966 A 3.017 3.017 0 0 1 243.339 65.418 C 244.372 63.644 247.276 63.362 249.656 63.184 A 20.577 20.577 0 0 0 257.01 61.39 C 260.805 59.563 263.339 56.28 263.339 51.015 C 263.339 50.994 263.339 50.973 263.339 50.952 L 263.325 42.952 L 263.325 39.757 A 6.977 6.977 0 0 1 267.379 38.441 C 267.392 38.441 267.404 38.44 267.417 38.44 A 6.996 6.996 0 0 1 272.132 40.254 C 272.132 44.545 272.132 48.836 272.132 53.128 L 266.939 56.723 L 267.738 57.921 L 270.534 55.924 L 280.121 63.913 L 294.102 53.527 L 292.904 52.329 L 290.257 54.097 C 290.257 49.313 290.257 44.529 290.257 39.746 A 6.977 6.977 0 0 1 294.296 38.441 C 294.308 38.441 294.321 38.44 294.334 38.44 A 7 7 0 0 1 298.896 40.119 L 298.896 53.407 L 294.106 56.723 L 294.905 57.921 L 297.701 55.924 L 307.288 63.913 L 320.019 53.527 L 318.821 52.329 L 314.101 55.481 L 310.48 52.329 L 310.48 13.56 L 314.816 10.044 L 313.346 8.231 L 309.876 11.046 L 299.309 1.618 L 290.256 7.052 C 290.256 5.5 290.256 3.948 290.256 2.397 L 287.868 2.397 C 287.868 4.426 287.868 6.456 287.868 8.485 L 283.337 11.204 A 7690.805 7690.805 0 0 0 276.176 5.275 C 274.694 4.049 273.213 2.824 271.733 1.598 L 255.042 12.167 A 44.773 44.773 0 0 0 253.349 13.291 C 251.093 14.867 249.425 16.391 248.211 17.996 A 14.12 14.12 0 0 0 245.432 25.486 A 17.743 17.743 0 0 0 241.241 26.472 C 239.706 27.053 238.445 27.839 237.464 28.793 A 8.458 8.458 0 0 0 234.912 35.048 A 9.834 9.834 0 0 0 234.913 35.122 A 10.139 10.139 0 0 0 236.186 39.949 L 237.78 39.949 A 5.588 5.588 0 0 1 237.704 39.362 C 237.557 37.357 238.645 36.024 240.383 35.45 A 6.943 6.943 0 0 1 242.553 35.129 A 65685.591 65685.591 0 0 0 243.929 35.129 A 65685.591 65685.591 0 0 1 245.304 35.129 Z M 724.449 21.125 L 715.72 28.354 L 719.411 31.706 L 719.411 57.076 L 717.835 58 L 711.247 53.681 L 711.264 37.021 A 108.079 108.079 0 0 0 711.264 36.912 C 711.264 29.061 710.393 26.881 705.309 23.618 C 703.565 22.499 701.237 20.951 701.237 18.252 A 3.94 3.94 0 0 1 701.97 15.94 A 5.355 5.355 0 0 1 704.852 13.985 L 704.444 12.396 A 13.951 13.951 0 0 0 698.271 14.436 C 696.412 15.603 694.979 17.168 694.16 18.903 A 7.752 7.752 0 0 0 693.39 22.215 A 6.757 6.757 0 0 0 693.859 24.718 C 694.731 26.934 696.641 28.453 698.085 29.947 A 18.299 18.299 0 0 1 698.087 29.95 C 700.017 31.948 700.861 33.646 700.861 37.729 L 700.861 55.438 L 697.111 58.479 L 698.58 60.292 L 701.158 58.201 L 710.684 65.076 L 721.181 59.264 L 729.235 65.076 L 748.576 54.814 L 748.592 28.609 L 753.51 24.621 L 752.04 22.808 L 748.46 25.712 L 743.229 21.125 L 734.5 28.354 L 738.191 31.706 L 738.191 56.941 L 736.385 58 L 729.797 53.681 L 729.814 31.056 L 732.908 28.542 L 724.449 21.125 Z M 501.631 12.813 L 501.631 28.043 A 17.806 17.806 0 0 0 499.672 28.149 C 495.913 28.57 491.599 30.441 491.511 37.042 A 15.495 15.495 0 0 0 491.509 37.251 A 11.652 11.652 0 0 0 491.51 37.371 A 12.432 12.432 0 0 0 492.573 42.229 L 494.167 42.229 C 493.656 39.563 495.217 37.697 498.109 37.429 A 8.017 8.017 0 0 1 498.848 37.396 C 499.776 37.396 500.704 37.396 501.631 37.396 L 501.631 53.219 A 28.463 28.463 0 0 0 488.794 65.771 A 27.314 27.314 0 0 0 488.667 66.021 L 491.208 66.021 C 493.506 62.479 497.476 59.85 502.825 59.488 A 18.918 18.918 0 0 1 504.104 59.445 C 511.122 59.445 516.71 63.18 518.632 64.627 A 22.127 22.127 0 0 1 518.875 64.813 L 532.144 54.333 A 16.48 16.48 0 0 0 537.508 63.24 A 13.345 13.345 0 0 0 539.917 64.729 L 552.667 54.604 L 552.667 52.063 L 546.953 56.479 A 16.15 16.15 0 0 1 542.246 49.098 C 539.713 41.693 540.141 32.937 530.663 28.891 L 542.79 18.479 L 529.562 0.396 L 519.063 9.114 C 519.063 6.792 519.062 4.47 519.062 2.149 L 516.674 2.149 C 516.674 5.131 516.674 8.114 516.674 11.097 L 513.333 13.87 L 513.333 12.646 A 19.31 19.31 0 0 0 513.087 9.453 C 511.949 2.672 507.119 1.41 503.761 1.41 A 11.344 11.344 0 0 0 497.323 3.362 A 10.928 10.928 0 0 0 492.512 11.864 L 494.506 11.864 A 4.442 4.442 0 0 1 495.866 8.669 A 3.453 3.453 0 0 1 498.242 7.722 C 500.929 7.722 501.631 10.128 501.631 12.813 Z M 371.796 13.985 L 371.388 12.396 C 369.483 12.566 367.611 13.123 365.932 14.04 A 13.449 13.449 0 0 0 365.284 14.418 C 362.809 15.954 360.334 18.602 360.334 22.215 A 6.757 6.757 0 0 0 360.803 24.718 C 361.675 26.934 363.586 28.453 365.029 29.947 A 18.299 18.299 0 0 1 365.031 29.95 A 19.297 19.297 0 0 1 365.641 30.607 C 367.349 32.55 367.805 34.173 367.805 39.729 L 367.805 55.438 L 364.055 58.479 L 365.525 60.292 L 368.125 58.183 L 379.384 65.076 L 398.497 53.681 L 398.514 31.056 L 401.607 28.542 L 393.149 21.125 L 384.42 28.354 L 388.111 31.706 L 388.111 57.064 L 385.705 58.465 L 378.191 53.681 L 378.208 36.188 C 378.21 33.439 378.042 31.234 377.44 29.402 A 8.607 8.607 0 0 0 374.996 25.604 A 11.502 11.502 0 0 0 373.892 24.733 C 371.483 23.027 368.181 21.515 368.181 18.252 A 3.94 3.94 0 0 1 368.915 15.94 A 5.355 5.355 0 0 1 371.796 13.985 Z M 600.629 13.985 L 600.222 12.396 C 598.316 12.566 596.444 13.123 594.765 14.04 A 13.449 13.449 0 0 0 594.117 14.418 C 591.642 15.954 589.168 18.602 589.168 22.215 A 6.757 6.757 0 0 0 589.637 24.718 C 590.508 26.934 592.419 28.453 593.862 29.947 A 18.299 18.299 0 0 1 593.865 29.95 A 19.297 19.297 0 0 1 594.474 30.607 C 596.183 32.55 596.638 34.173 596.638 39.729 L 596.638 55.438 L 592.888 58.479 L 594.358 60.292 L 596.958 58.183 L 608.217 65.076 L 627.33 53.681 L 627.347 31.056 L 630.441 28.542 L 621.982 21.125 L 613.253 28.354 L 616.944 31.706 L 616.944 57.064 L 614.538 58.465 L 607.024 53.681 L 607.041 36.188 C 607.044 33.439 606.876 31.234 606.273 29.402 A 8.607 8.607 0 0 0 603.829 25.604 A 11.502 11.502 0 0 0 602.725 24.733 C 600.317 23.027 597.015 21.515 597.015 18.252 A 3.94 3.94 0 0 1 597.748 15.94 A 5.355 5.355 0 0 1 600.629 13.985 Z M 430.62 58.52 L 434.308 55.529 L 446.672 64.712 L 463.849 50.731 L 462.651 48.734 L 453.463 55.924 L 443.477 49.133 L 443.477 45.538 L 461.452 34.353 L 461.452 33.954 L 453.064 21.171 L 433.091 31.557 L 433.091 53.512 L 429.15 56.708 L 430.62 58.52 Z M 555.37 58.52 L 559.058 55.529 L 571.422 64.712 L 588.599 50.731 L 587.401 48.734 L 578.213 55.924 L 568.227 49.133 L 568.227 45.538 L 586.202 34.353 L 586.202 33.954 L 577.814 21.171 L 557.841 31.557 L 557.841 53.512 L 553.9 56.708 L 555.37 58.52 Z M 659.453 58.52 L 663.142 55.529 L 675.506 64.712 L 692.682 50.731 L 691.484 48.734 L 682.296 55.924 L 672.31 49.133 L 672.31 45.538 L 690.285 34.353 L 690.285 33.954 L 681.897 21.171 L 661.924 31.557 L 661.924 53.512 L 657.983 56.708 L 659.453 58.52 Z M 100.53 64.313 L 109.325 57.918 L 115.69 64.294 L 127.289 56.328 L 126.894 54.727 L 123.299 57.122 L 119.305 53.128 L 119.305 32.113 L 123.653 28.587 L 122.183 26.774 L 118.819 29.502 L 106.522 21.571 L 97.334 26.364 A 17.902 17.902 0 0 0 96.648 26.741 C 94.388 28.049 92.128 30.08 92.128 33.408 A 7.238 7.238 0 0 0 95.367 39.325 A 17.33 17.33 0 0 0 98.929 41.33 A 27.997 27.997 0 0 0 94.591 44.146 C 91.155 46.9 89.305 50.057 89.305 53.332 A 10.585 10.585 0 0 0 94.87 62.309 C 96.144 63.08 97.534 63.652 98.925 64.004 A 13.826 13.826 0 0 0 100.53 64.313 Z M 180.632 68.24 L 181.445 66.052 C 180.778 65.675 180.258 64.974 180.258 63.983 A 2.941 2.941 0 0 1 182.043 61.314 C 182.662 61.008 183.384 60.844 184.105 60.832 A 5.109 5.109 0 0 1 184.187 60.831 A 6.421 6.421 0 0 1 187.088 61.512 C 188.548 62.242 189.647 63.468 190.358 64.729 L 206.811 54.729 L 206.811 42.146 L 199.633 36.831 A 22.298 22.298 0 0 0 203.825 31.722 C 205.315 29.186 206.19 26.409 206.672 23.215 A 38.443 38.443 0 0 0 206.9 21.396 L 204.546 21.396 A 0.024 0.024 0 0 1 204.545 21.4 A 0.024 0.024 0 0 0 204.545 21.404 L 204.514 21.396 A 3.939 3.939 0 0 1 201.429 24.742 A 4.621 4.621 0 0 1 200.344 24.87 A 6.306 6.306 0 0 1 197.347 24.109 C 196.108 23.448 195.122 22.442 194.405 21.436 A 10.456 10.456 0 0 1 194.261 21.229 L 177.039 31.229 L 177.039 42.896 L 183.352 47.876 C 177.582 53.235 175.839 56.242 175.507 59.249 A 11.049 11.049 0 0 0 175.443 60.464 C 175.443 64.376 177.757 67.128 180.632 68.24 Z M 760.216 68.24 L 761.028 66.052 C 760.361 65.675 759.841 64.974 759.841 63.983 A 2.941 2.941 0 0 1 761.626 61.314 C 762.246 61.008 762.967 60.844 763.688 60.832 A 5.109 5.109 0 0 1 763.771 60.831 A 6.421 6.421 0 0 1 766.671 61.512 C 768.132 62.242 769.231 63.468 769.941 64.729 L 786.394 54.729 L 786.394 42.146 L 779.217 36.831 A 22.298 22.298 0 0 0 783.408 31.722 C 784.898 29.186 785.774 26.409 786.255 23.215 A 38.443 38.443 0 0 0 786.483 21.396 L 784.129 21.396 A 0.024 0.024 0 0 1 784.129 21.4 A 0.024 0.024 0 0 0 784.128 21.404 L 784.098 21.396 A 3.939 3.939 0 0 1 781.012 24.742 A 4.621 4.621 0 0 1 779.927 24.87 A 6.306 6.306 0 0 1 776.93 24.109 C 775.691 23.448 774.705 22.442 773.988 21.436 A 10.456 10.456 0 0 1 773.844 21.229 L 756.622 31.229 L 756.622 42.896 L 762.935 47.876 C 757.166 53.235 755.422 56.242 755.09 59.249 A 11.049 11.049 0 0 0 755.027 60.464 C 755.027 64.376 757.341 67.128 760.216 68.24 Z M 151.527 55.146 L 156.333 51.674 L 157.416 53.132 L 145.152 63.896 L 143.986 63.896 L 131.402 55.323 L 131.402 30.406 L 148.611 20.813 L 157.444 27.896 L 149.527 33.896 L 142.111 27.729 L 142.111 49.396 C 144.3 53.418 148.079 54.773 150.593 55.077 A 9.792 9.792 0 0 0 151.527 55.146 Z M 323.386 58.255 L 326.849 55.446 L 338.566 63.913 L 356.941 52.728 L 356.941 29.959 L 344.957 20.772 L 326.183 31.557 C 326.183 38.699 326.183 45.841 326.183 52.983 L 321.917 56.442 L 323.386 58.255 Z M 427.795 54.326 L 424.2 56.723 L 421.403 53.927 L 421.403 28.761 L 415.012 21.171 L 403.827 28.761 L 405.026 30.359 L 408.221 28.361 L 411.018 31.956 L 411.018 53.927 L 405.825 57.522 L 407.023 59.12 L 409.819 57.122 L 417.808 64.313 L 429.792 55.924 L 427.795 54.326 Z M 656.628 54.326 L 653.033 56.723 L 650.237 53.927 L 650.237 28.761 L 643.846 21.171 L 632.661 28.761 L 633.859 30.359 L 637.055 28.361 L 639.851 31.956 L 639.851 53.927 L 634.658 57.522 L 635.856 59.12 L 638.653 57.122 L 646.642 64.313 L 658.625 55.924 L 656.628 54.326 Z M 53.285 55.243 L 48.334 51.53 L 48.335 13.808 L 53.285 10.811 C 53.285 25.622 53.285 40.433 53.285 55.243 Z M 287.868 55.243 L 282.917 51.53 L 282.919 13.808 L 287.868 10.811 C 287.868 25.622 287.868 40.433 287.868 55.243 Z M 513.333 50.785 L 513.333 16.719 L 516.674 13.819 C 516.674 26.265 516.674 38.712 516.674 51.158 A 24.215 24.215 0 0 0 513.333 50.785 Z M 165.911 30.783 L 168.245 30.783 L 171.828 0 L 170.23 0 L 158.75 7.387 L 158.75 8.585 C 162.398 9.13 162.998 12.945 163.584 16.533 L 165.911 30.783 Z M 336.968 51.13 L 336.968 27.163 L 346.555 33.554 L 346.555 57.522 L 336.968 51.13 Z M 26.763 0.644 L 28.362 1.443 A 73.636 73.636 0 0 1 25.981 3.991 C 21.405 8.638 18.649 9.787 15.254 9.787 C 12.377 9.787 10.337 8.436 7.678 8.194 A 8.862 8.862 0 0 0 6.875 8.158 A 5.778 5.778 0 0 0 4.644 8.584 A 5.561 5.561 0 0 0 1.598 11.829 L 0 11.03 A 19.53 19.53 0 0 1 1.563 7.383 C 4.206 2.662 8.238 0.607 11.364 0.607 A 11.331 11.331 0 0 1 13.913 0.905 C 16.783 1.56 19.11 3.067 22.514 3.067 A 4.273 4.273 0 0 0 23.831 2.869 C 24.875 2.534 25.621 1.826 26.307 1.117 A 330.214 330.214 0 0 1 26.763 0.644 Z M 261.346 0.644 L 262.945 1.443 A 73.636 73.636 0 0 1 260.564 3.991 C 255.988 8.638 253.232 9.787 249.838 9.787 C 246.961 9.787 244.921 8.436 242.261 8.194 A 8.862 8.862 0 0 0 241.458 8.158 A 5.778 5.778 0 0 0 239.228 8.584 A 5.561 5.561 0 0 0 236.181 11.829 L 234.583 11.03 A 19.53 19.53 0 0 1 236.146 7.383 C 238.789 2.662 242.821 0.607 245.947 0.607 A 11.331 11.331 0 0 1 248.497 0.905 C 251.366 1.56 253.694 3.067 257.098 3.067 A 4.273 4.273 0 0 0 258.414 2.869 C 259.458 2.534 260.205 1.826 260.891 1.117 A 330.214 330.214 0 0 1 261.346 0.644 Z M 519.063 11.745 L 521.624 9.521 L 532.207 24.563 L 519.063 35.928 C 519.063 27.867 519.063 19.806 519.063 11.745 Z M 519.063 38.851 L 521.77 36.526 C 529.459 38.425 529.964 45.841 531.739 52.838 L 527.562 56.146 A 23.921 23.921 0 0 0 519.063 51.719 C 519.063 47.43 519.063 43.14 519.063 38.851 Z M 191.443 43.89 L 196.061 47.568 L 196.061 58.424 C 194.573 55.15 191.319 52.214 186.788 52.027 A 11.149 11.149 0 0 0 186.329 52.018 A 9.538 9.538 0 0 0 182.268 52.911 A 9.065 9.065 0 0 0 180.489 54.011 A 28.833 28.833 0 0 1 182.685 51.605 C 184.413 49.893 186.433 48.194 188.449 46.462 L 191.443 43.89 Z M 771.026 43.89 L 775.644 47.568 L 775.645 58.424 C 774.156 55.15 770.902 52.214 766.371 52.027 A 11.149 11.149 0 0 0 765.912 52.018 A 9.538 9.538 0 0 0 761.852 52.911 A 9.065 9.065 0 0 0 760.073 54.011 A 28.833 28.833 0 0 1 762.268 51.605 C 763.996 49.893 766.016 48.194 768.032 46.462 L 771.026 43.89 Z M 55.673 10.226 L 64.312 17.177 L 64.312 27.136 A 6.998 6.998 0 0 1 59.752 28.812 C 59.744 28.812 59.736 28.812 59.728 28.812 A 6.991 6.991 0 0 1 55.673 27.509 C 55.673 21.748 55.673 15.987 55.673 10.226 Z M 290.256 10.226 L 298.896 17.177 L 298.896 27.136 A 6.998 6.998 0 0 1 294.336 28.812 C 294.328 28.812 294.32 28.812 294.312 28.812 A 6.991 6.991 0 0 1 290.257 27.509 C 290.257 21.748 290.256 15.987 290.256 10.226 Z M 28.742 27.498 L 28.742 10.748 L 37.549 16.777 C 37.549 20.185 37.549 23.593 37.549 27.001 A 6.993 6.993 0 0 1 32.836 28.812 C 32.828 28.812 32.82 28.812 32.812 28.812 A 6.991 6.991 0 0 1 28.742 27.498 Z M 263.325 27.498 L 263.325 10.748 L 272.132 16.777 C 272.132 20.185 272.132 23.593 272.132 27.001 A 6.993 6.993 0 0 1 267.419 28.812 C 267.411 28.812 267.403 28.812 267.395 28.812 A 6.991 6.991 0 0 1 263.325 27.498 Z M 191.235 40.994 L 187.789 37.474 L 187.788 26.618 C 189.47 30.795 193.027 32.691 196.584 32.749 A 10.335 10.335 0 0 0 196.751 32.75 A 10.562 10.562 0 0 0 200.267 32.158 A 9.942 9.942 0 0 0 200.935 31.895 A 18.35 18.35 0 0 1 199.509 33.668 C 199.122 34.093 198.73 34.487 198.338 34.856 A 28.329 28.329 0 0 1 197.372 35.723 L 191.235 40.994 Z M 770.818 40.994 L 767.372 37.474 L 767.372 26.618 C 769.054 30.795 772.611 32.691 776.167 32.749 A 10.335 10.335 0 0 0 776.334 32.75 A 10.562 10.562 0 0 0 779.85 32.158 A 9.942 9.942 0 0 0 780.519 31.895 A 18.35 18.35 0 0 1 779.092 33.668 C 778.705 34.093 778.313 34.487 777.921 34.856 A 28.329 28.329 0 0 1 776.955 35.723 L 770.818 40.994 Z M 99.083 27.896 L 108.919 33.954 A 382223.763 382223.763 0 0 1 108.919 37.864 A 382223.83 382223.83 0 0 0 108.919 41.774 C 103.347 40.484 94.537 38.27 94.537 32.923 A 4.015 4.015 0 0 1 95.949 30.019 C 96.516 29.472 97.218 28.975 97.991 28.511 A 24.086 24.086 0 0 1 99.083 27.896 Z M 408.349 9.928 L 415.452 18.018 L 423.411 11.029 L 416.308 2.939 L 408.349 9.928 Z M 637.182 9.928 L 644.285 18.018 L 652.245 11.029 L 645.142 2.939 L 637.182 9.928 Z M 108.919 50.56 A 613641.633 613641.633 0 0 0 108.919 44.254 A 417.152 417.152 0 0 1 107.734 43.982 C 106.527 43.702 105.264 43.398 104 43.052 A 44.68 44.68 0 0 1 100.443 41.932 C 100.117 42.416 99.805 43.114 99.605 43.934 A 7.736 7.736 0 0 0 99.385 45.756 A 13.616 13.616 0 0 0 99.411 46.592 C 99.554 48.91 100.279 51.543 101.577 53.597 A 6.683 6.683 0 0 0 107.189 57.131 C 107.774 57.131 108.36 57.042 108.919 56.866 A 613641.667 613641.667 0 0 1 108.919 50.56 Z M 443.477 42.669 L 443.477 28.462 L 445.074 27.563 L 451.848 37.365 L 443.477 42.669 Z M 568.227 42.669 L 568.227 28.462 L 569.824 27.563 L 576.598 37.365 L 568.227 42.669 Z M 672.31 42.669 L 672.31 28.462 L 673.908 27.563 L 680.681 37.365 L 672.31 42.669 Z M 28.742 37.337 L 28.742 29.925 A 7.101 7.101 0 0 0 32.751 31.207 C 32.776 31.207 32.802 31.208 32.827 31.208 A 7.154 7.154 0 0 0 37.549 29.439 C 37.549 32.231 37.549 35.022 37.549 37.814 C 34.969 35.533 31.31 35.554 28.742 37.337 Z M 263.325 37.337 L 263.325 29.925 A 7.101 7.101 0 0 0 267.334 31.207 C 267.36 31.207 267.385 31.208 267.41 31.208 A 7.154 7.154 0 0 0 272.132 29.439 C 272.132 32.231 272.132 35.022 272.132 37.814 C 269.553 35.533 265.893 35.554 263.325 37.337 Z M 64.312 29.57 L 64.312 37.682 A 6.98 6.98 0 0 0 61.557 36.267 C 60.977 36.119 60.385 36.047 59.795 36.047 A 7.276 7.276 0 0 0 55.673 37.327 C 55.673 34.863 55.673 32.399 55.673 29.935 C 58.299 31.767 61.861 31.601 64.312 29.57 Z M 298.896 29.57 L 298.896 37.682 A 6.98 6.98 0 0 0 296.14 36.267 C 295.56 36.119 294.968 36.047 294.378 36.047 A 7.276 7.276 0 0 0 290.257 37.327 C 290.257 34.863 290.257 32.399 290.257 29.935 C 292.882 31.767 296.445 31.601 298.896 29.57 Z" vector-effect="non-scaling-stroke"/></g></svg>
