<?xml version="1.0" encoding="UTF-8" standalone="no"?>
<!-- Created with Inkscape (http://www.inkscape.org/) -->

<svg
   xmlns:dc="http://purl.org/dc/elements/1.1/"
   xmlns:cc="http://creativecommons.org/ns#"
   xmlns:rdf="http://www.w3.org/1999/02/22-rdf-syntax-ns#"
   xmlns:svg="http://www.w3.org/2000/svg"
   xmlns="http://www.w3.org/2000/svg"
   xmlns:sodipodi="http://sodipodi.sourceforge.net/DTD/sodipodi-0.dtd"
   xmlns:inkscape="http://www.inkscape.org/namespaces/inkscape"
   width="50mm"
   height="50mm"
   viewBox="0 0 50 50"
   version="1.1"
   id="svg263"
   inkscape:version="0.92.3 (2405546, 2018-03-11)"
   sodipodi:docname="github.svg">
  <defs
     id="defs257" />
  <sodipodi:namedview
     id="base"
     pagecolor="#ffffff"
     bordercolor="#666666"
     borderopacity="1.0"
     inkscape:pageopacity="0.0"
     inkscape:pageshadow="2"
     inkscape:zoom="1.4"
     inkscape:cx="59.644323"
     inkscape:cy="99.772092"
     inkscape:document-units="mm"
     inkscape:current-layer="g38"
     showgrid="false"
     fit-margin-top="2"
     fit-margin-left="2"
     fit-margin-right="2"
     fit-margin-bottom="2"
     inkscape:window-width="1440"
     inkscape:window-height="845"
     inkscape:window-x="0"
     inkscape:window-y="0"
     inkscape:window-maximized="1" />
  <metadata
     id="metadata260">
    <rdf:RDF>
      <cc:Work
         rdf:about="">
        <dc:format>image/svg+xml</dc:format>
        <dc:type
           rdf:resource="http://purl.org/dc/dcmitype/StillImage" />
        <dc:title></dc:title>
      </cc:Work>
    </rdf:RDF>
  </metadata>
  <g
     inkscape:label="Layer 1"
     inkscape:groupmode="layer"
     id="layer1"
     transform="translate(-96.943096,-72.463854)">
    <g
       id="g38"
       transform="translate(0,-1.0583333)">
      <g
         transform="matrix(1.754524,0,0,1.754524,84.308556,-190.57559)"
         id="g4692">
        <rect
           style="fill:#ffffff;fill-opacity:0;stroke:#ffffff;stroke-width:0.69499999;stroke-linecap:butt;stroke-linejoin:round;stroke-miterlimit:4;stroke-dasharray:none;stroke-dashoffset:37.77399826;stroke-opacity:0;paint-order:markers stroke fill"
           id="rect4668"
           width="12.8"
           height="12.7"
           x="14.9"
           y="155"
           ry="0" />
        <rect
           style="fill:#ffffff;fill-opacity:0;stroke:#ffffff;stroke-width:0.71600002;stroke-linecap:butt;stroke-linejoin:round;stroke-miterlimit:4;stroke-dasharray:none;stroke-dashoffset:37.77399826;stroke-opacity:0;paint-order:markers stroke fill"
           id="rect4679"
           width="8.5600004"
           height="1.04"
           x="16"
           y="168" />
        <rect
           style="fill:#ffffff;fill-opacity:0;stroke:#ffffff;stroke-width:0.71499997;stroke-linecap:butt;stroke-linejoin:miter;stroke-miterlimit:4;stroke-dasharray:none;stroke-dashoffset:37.77399826;stroke-opacity:0;paint-order:markers stroke fill"
           id="rect4685"
           width="5.6399999"
           height="1.7"
           x="18.6"
           y="169" />
        <path
           id="path5141"
           d="m 21.4,151 c -5.5,0 -9.9,5 -9.9,11 0,4 2.9,7 6.8,9 0.4,0 0.6,0 0.6,-1 0,0 0,-1 0,-1 -2.8,0 -3.3,-2 -3.3,-2 -0.4,-1 -1.1,-1 -1.1,-1 -0.9,0 0.1,0 0.1,0 1,0 1.4,0 1.4,0 0.9,2 2.4,2 2.9,1 0.1,-1 0.4,-1 0.7,-1 -2.2,0 -4.5,-1 -4.5,-5 0,-1 0.4,-2 0.9,-3 -0.1,0 -0.4,-1 0.2,-2 0,0 0.8,-1 2.7,1 0.7,0 1.6,0 2.5,0 0.8,0 1.7,0 2.4,0 2,-2 2.8,-1 2.8,-1 0.6,1 0.2,2 0.1,2 0.7,1 1.1,2 1.1,3 0,4 -2.4,5 -4.6,5 0.3,0 0.6,1 0.6,2 0,1 0,2 0,2 0,1 0.2,1 0.7,1 4,-2 6.9,-5 6.9,-9 0,-6 -4.5,-11 -10,-11 z"
           inkscape:connector-curvature="0"
           style="stroke-width:0.041;stroke-miterlimit:4;stroke-dasharray:none" />
      </g>
      <text
         xml:space="preserve"
         style="font-style:normal;font-weight:normal;font-size:11.98554134px;line-height:0%;font-family:sans-serif;letter-spacing:0px;word-spacing:0px;display:inline;fill:#000000;fill-opacity:1;stroke:none;stroke-width:0.55932528;stroke-miterlimit:4;stroke-dasharray:none"
         x="106.70061"
         y="119.92111"
         id="text4560-3"><tspan
           sodipodi:role="line"
           text-decoration="underline"
           id="tspan4558-6"
           x="106.70061"
           y="119.92111"
           style="font-style:normal;font-variant:normal;font-weight:normal;font-stretch:normal;font-size:8.46666622px;line-height:1.25;font-family:monospace;-inkscape-font-specification:monospace;text-decoration: underline;text-decoration-line: underline;fill:#000000;stroke-width:0.55932528">GitHub</tspan></text>
    </g>
  </g>
</svg>
